<svg id="圖層_1" data-name="圖層 1" xmlns="http://www.w3.org/2000/svg" viewBox="0 0 348 315.17"><defs><style>.cls-1{fill:#fff;}.cls-2{fill:#231815;}</style></defs><path class="cls-1" d="M264.64,255.2a5.63,5.63,0,0,0,2.36.74c1.87.13-.8-2.27-.8.65l1.38-2.4c-3.48,1.56-8.7,2.25-12.24.44-5.08-2.62.17-9.09,3.64-10.8,8.86-4.35,24.44,3.89,20.69,14.9-1.81,5.28-8.17,8.89-13.15,10.57-5.66,1.91-10.5,1.08-15.69-1.58-7.53-3.86-14.12-7.08-22.69-7.17-11.83-.11-32.06,3.32-35.95,16.9-4.63,16.13,15.23,27.69,28.87,22.53,7.21-2.73,14.48-14.08,7.83-21-5.7-5.92-17.2.56-17.61,7.73a2.25,2.25,0,0,0,3.36,1.93c1.78-1.22,6.32-6,8.72-5.09,3.72,1.39-1.19,8.31-3.23,9.49-7.16,4.17-16.64.68-20.38-6.26-8.13-15.1,17.64-19.89,27.5-20,9.17-.13,15.46,4.19,23.63,7.71,9.44,4.07,19.62,1.3,27.57-4.8,7.66-5.88,10.29-15.51,4.65-23.94-4.38-6.55-13.94-9.8-21.53-8.69s-17.51,10.1-13.43,18.4c3.79,7.72,15.87,6.48,22.24,3.55a2.68,2.68,0,0,0,1.37-2.39c-.1-1.9-.14-4.24-2-5.34-1.54-.93-2.58.18-4.07,0-2.13-.29-2.84,3-1.07,4Z"/><path class="cls-1" d="M271,233.81c12.14,4.15,25.26-6.1,30.79-16.11s6.14-23.42-3.38-31.22c-9.67-7.93-28.05-9.58-33.93,3.8-4.79,10.91,2.6,24.53,14.57,26.25,5.34.77,9.15-2.62,9-8-.12-3.41-1.33-7.24-4.14-9.36-3-2.29-6.69-1.81-8.64,1.47a2.23,2.23,0,0,0,2.49,3.23c2.71-.7,6.66,4.32,4.33,6.67-1,1-2.92.31-4.06-.1-4-1.46-7.93-5.17-9.11-9.36a12,12,0,0,1,6.9-14.32c5.6-2.15,12.22-.51,17.15,2.53,9.26,5.69,8.87,17.05,4,25.63a29.21,29.21,0,0,1-10.16,10.7c-4.95,3-9.49,3.18-15.1,3.11-3,0-3.4,4.19-.7,5.11Z"/><path class="cls-1" d="M218.29,166.22c-.23,7.79,12,13.46,18.62,12.11,9.54-1.93,10.16-12.21,6.37-19.38s-9.75-10-16.57-13.55c-4.72-2.44-17.8-8.06-12.39-15,1.45-1.87-.49-5.4-2.83-3.66-13.19,9.81,5.17,20.38,13.48,24.61,6,3,11.38,5.74,13.91,12.54,1.7,4.57-.16,9.13-5.65,8.41-4.53-.59-8.17-3.6-10.66-7.23a2.32,2.32,0,0,0-4.28,1.16Z"/><path class="cls-1" d="M165.84,193.87c-4.2,7.44-9.55-2.44-8.11-7.5,1.73-6.1,8.94-9.22,14.75-9.42,13-.46,17.54,13.34,12.41,23.5a28.11,28.11,0,0,1-22.34,14.76c-12.69.9-18.48-8.66-21.43-19.6-.91-3.4-6.18-2-5.28,1.46,3.21,12.2,9.87,22.87,23.66,23.62,10.65.59,21.44-5.26,27.64-13.75,6.33-8.66,8-22.79-1.24-30.19-8.87-7.11-25.41-5.22-31.35,4.94a14,14,0,0,0,3.09,17.62c4.54,3.62,10.37,1.8,11.29-4.14.27-1.77-2.07-3.09-3.09-1.3Z"/><path class="cls-1" d="M167.65,218.75a37.32,37.32,0,0,0-17,29.37c-.54,12.3,7.07,22.14,19.64,23.08,13.77,1,32.45-7.92,36.63-21.95,4.49-15.05-12.86-29.44-27-24.2-7.35,2.71-14.08,11.52-9.6,19.36a7.57,7.57,0,0,0,7.37,4c4.37-.53,6.15-4,6.55-8a1.7,1.7,0,0,0-2.54-1.46c-.92.59-4,3.08-5.1,2.63-2.72-1.17.28-6.48,1.24-7.51,3.95-4.22,10.36-4.5,15.24-1.86,4.57,2.47,8.42,7.61,8.08,13s-5.12,9.9-9.32,12.81c-7.59,5.27-18.74,9.1-27.72,5-7-3.16-8.22-11.2-7.47-18.09.95-8.63,5.32-18.61,12.5-23.77,1.49-1.07.14-3.53-1.47-2.51Z"/><path class="cls-1" d="M235,227.86c4.72-3.84,6.24-10.05,2.3-15.05-3.77-4.77-10.48-6.38-16.25-4.95-11.95,2.95-14.51,15.13-7.46,24.31,8.49,11.05,23.44,11.47,32.79,1.23,4.74-5.2,8.5-12.5,8.31-19.68-.18-6.87-3.61-13.61-5.73-20.05-1.1-3.36-6.77-3-6.49.88.61,8.34,7.13,15.43,4.69,24-2.58,9.07-11.83,19.11-22,14.57-4.87-2.18-11.93-9.52-8.34-15.32,2.18-3.51,7.64-4.72,11.38-3.62,5.84,1.72,5.69,6.1,2.47,10.32-2,2.66,2.1,5.12,4.3,3.32Z"/><path class="cls-1" d="M252.34,153.31c1.43,9,12.71,14.93,20.65,17.37,9.16,2.81,18.45.12,22.4-9.25,3.17-7.52-.91-16.89-9.76-17.05-2.9-.06-6.34,1.11-7.78,3.84a5.28,5.28,0,0,0,2.71,7.53,1.43,1.43,0,0,0,1.6-.65c1.45-2.38,2.46-5.91,6-2.94,4.87,4-1.72,11.89-6.12,12.72-9.85,1.83-19.92-7.39-26.35-13.55-1.57-1.5-3.69.06-3.39,2Z"/><path class="cls-1" d="M256.55,119.25c-.31-1.11-1.24-2.21-.87-3.4.51-1.64,3.06-2.6,4.58-2.2,5.24,1.37,5.21,8.41,3.05,12-4.29,7.23-14.44,12.09-22.15,7.31-7.26-4.5-8.41-14.63-5.16-21.92A59.09,59.09,0,0,1,242.17,101c1.87-2.6,4.22-6.53,6.93-8.36,2.31-1.57.94-5.94-2-4.82-4.33,1.63-7,5.3-9.61,9-3,4.22-6,8.81-7.69,13.74-3.27,9.4-.58,21.39,8.12,26.94,9.28,5.92,20.78,1.95,27.53-5.9,5.48-6.38,7-20.25-3.93-22.38-3.85-.76-8.39,1.58-9.59,5.43-.89,2.86.92,6.8,4.35,5.33a.65.65,0,0,0,.3-.72Z"/><path class="cls-1" d="M285.29,81.68c-8.58-.12-22.39-8.74-15.15-18.68a8,8,0,0,1,8.92-2.79c4,1.49,1.6,5.19,4,7.59a1.56,1.56,0,0,0,1.51.4c6-1.78,1.15-10.61-2.27-12.52-5.08-2.83-11.9-1.55-15.92,2.52-5.13,5.2-5,13.78-.82,19.44,4.45,6,12.32,9,19.69,8.51,2.84-.19,2.9-4.42,0-4.47Z"/><path class="cls-1" d="M312.55,105.58c2.09,4.77-2.92,6.15-6.64,4.74-4.81-1.82-6.59-7.78-4.27-12.22,4.59-8.82,18.55-7.32,23.81-.3,5.8,7.72,9.84,23.62-1.43,28.45-9.14,3.92-21.75-.12-29.88-4.86a24.47,24.47,0,0,1-11.8-15.34c-1.56-6.92.19-14.14.9-21.06.14-1.35-1.63-1.44-2.27-.61-11.35,14.88-4.23,35.43,11.78,43.44,11.43,5.71,32.8,10.17,41.09-3,7-11.18-.26-32-12.38-36.79s-29.7,3.2-25.69,18.15a13.47,13.47,0,0,0,15.05,9.63c6.59-1.18,8.55-7,5.93-12.64-1.31-2.86-5.45-.37-4.2,2.45Z"/><path class="cls-1" d="M301.4,76.06c3.45,3.53,10.09,2.93,14.51,2.22,5.91-.94,10.44-3.15,13.74-8.25,6-9.26,9-25.93.48-34.62-7.38-7.53-24-12.33-33.05-5.18-8.8,7-5.67,22.12,1.82,28.87,3.89,3.51,9.77,4.65,14.05,1,3.84-3.26,3.13-13.69-3.19-13.26a1,1,0,0,0-1,1c0,2.78,3.57,6.26.49,8.5-1.54,1.13-3.74.55-5.23-.31-3.72-2.17-5.81-7.43-6.39-11.49-1.89-13.23,12.22-13.55,21.32-9.85,4.76,1.93,9,4.94,10.3,10.14,1.33,5.4.31,11.48-1.45,16.66S323.48,71,318,72.59c-3.65,1-10.85,2.73-14.42.61a1.83,1.83,0,0,0-2.21,2.86Z"/><path class="cls-1" d="M178.44,134.21c-10-9.89-21.36,10.51-8.07,17,12.3,6,27.16-9.54,24-21.73-3.61-14-21.27-14.26-31.77-8.33a24.2,24.2,0,0,0-12.34,18.67c-.85,8.42,2.43,17.86-1.94,25.64s-15.77,13.44-20.51,2.81c-1.52-3.41-.87-6.8,2.17-9.09a6.74,6.74,0,0,1,3.12-1.45c1.36-.16.86-.22,1.1,1,.33,1.76,3.2,2.19,3.95.52,1.75-3.84.08-7.89-4.48-8.2s-9.31,3.4-11.49,7.22c-6.45,11.27,6.07,25.05,17.91,21.29,6-1.92,11.27-7,14-12.69,3.31-6.89,2-14.55,1.84-21.91-.2-8.6,3.29-16,11.44-19.68,5.53-2.46,13.79-3.72,18.75.65,7,6.18,1.64,16.48-5.24,20.11-4.09,2.15-10,2.06-12.15-2.86-2.32-5.34,3.32-10.92,8.31-7.16,1.06.8,2.3-.91,1.39-1.8Z"/><path class="cls-1" d="M212.05,90.73A14,14,0,0,0,204.49,86a2.92,2.92,0,0,0-3.23,1.31c-4.37,6.86-6.83,18,.16,24,8.37,7.24,20.14,1.75,24.73-6.82,4.67-8.73,5.25-20.12-1-28.22-5.33-6.9-14.42-10.2-23-9.11a21.65,21.65,0,0,0-12.48,5.87c-2.69,2.65-7.42,9.24-4.6,13a2.12,2.12,0,0,0,2.82.74c3.06-1.72,3.29-6.47,5.83-9a15.91,15.91,0,0,1,9.75-4.36c7.71-.78,15.95,3.12,18.94,10.52,3.09,7.66,0,21.79-9.17,24-12.09,2.92-10.57-11-7.06-17.71L203,91.52a9.24,9.24,0,0,1,5.49,2.79c2.3,2.43,5.57-1.09,3.59-3.58Z"/><path class="cls-1" d="M185.93,54.59c1.08-.16-.06-.8-.47-2.18a8.7,8.7,0,0,1-.06-4.8c1.48-5.14,7.91-5.15,12.11-3.53,5.51,2.13,8,7.89,7.16,13.52-.83,5.83-5.18,9.48-8.75,13.74a1.06,1.06,0,0,0,.74,1.79c9.22.42,14.2-10.65,13.86-18.61a17.84,17.84,0,0,0-16.11-17.29c-7.77-.88-15.11,3.1-15.44,11.52-.18,4.81,2.34,12.58,8.48,11.39,3.68-.72,2.06-6.1-1.52-5.55Z"/><path class="cls-1" d="M184.43,82.23l.4-.23a.27.27,0,0,0,0-.47l-.4-.23a.54.54,0,1,0,0,.93Z"/><path class="cls-1" d="M165.48,111.25c-.22-.65-.19-1.1-.82-1.27a.52.52,0,0,0-.65.49c-.07.68.31,1.86-.11,2.34l2.72.35c-1-1.9-2.9-3-4-4.86a17,17,0,0,1-1.82-6.47c-.42-4.48.11-9.83,2.24-13.86s7.09-7.1,11.41-8.53c5.68-1.87,9.12-.66,13.78,2.56,1.2.83,2.44-.53,2.23-1.72-1.15-6.66-9.79-7.14-15-6.07-6.12,1.24-13.77,4.43-17.24,9.93s-4.24,12.8-3.3,19c.71,4.75,4.22,14.18,10.65,12.53a1.75,1.75,0,0,0,.77-2.9c-.39-.45-2-2-1.55-1.27.22.33.83.13.68-.29Z"/><path class="cls-1" d="M157.69,94.84c-8.05,6.88-15.71,15-26,18.41-4.89,1.63-10.34,2.22-15.08-.2a13.06,13.06,0,0,1-6.78-15.34,21.51,21.51,0,0,1,12-13.4c5.07-2.16,12.35-1.62,13.26,5,.73,5.32-3.32,14.53-9.92,12.51-5.85-1.79-1.32-5.52-.48-8.89A1.54,1.54,0,0,0,123.26,91c-5-.36-7.64,5.91-6.05,10.07s6.08,6.08,10.25,5.56c11.78-1.47,18.6-20,8.25-27.38-12.17-8.63-28.8,4.09-32.48,16-4.24,13.7,7.16,27.06,21.23,25.8,13.5-1.2,30.17-12.28,35.38-25,.53-1.3-1.29-2-2.15-1.25Z"/><path class="cls-1" d="M116.27,131.25c.42,3.18.49,5.1-2.8,6.67-2.58,1.23-6,1.31-7.36-1.59-2.47-5.15,1.57-10.47,5.78-13a29.08,29.08,0,0,1,7.16-2.9c2.34-.65,4.85-.66,6.7-2.34a2,2,0,0,0-.4-3.13c-3.22-1.7-8.12.12-11.33,1.24a25.29,25.29,0,0,0-10,5.94c-4.66,4.84-6.38,14.06-1.4,19.36,7.72,8.22,26.6-3.24,18.17-12.16-1.44-1.52-4.81-.47-4.5,1.86Z"/><path class="cls-1" d="M124.9,77.22l.1.37a1,1,0,0,0,1,.74,1.05,1.05,0,0,0,1-.74l.09-.37a1.11,1.11,0,1,0-2.15,0Z"/><path class="cls-1" d="M120.29,83.19c11.37-6.49,16-27.13,7-37.09-6.3-7-23.41-9.67-28,.7a10.9,10.9,0,0,0,4.49,13.64c3.84,2.4,11.36,4,14.15-.83.75-1.31,1.16-3.76-.43-4.68s-3.27,1.1-4.91,1.4c-5.57,1-10.53-6.62-3.65-8.54s14.29,1.84,15.78,9c1.91,9.06-4.4,16.41-6.88,24.56a1.68,1.68,0,0,0,2.44,1.87Z"/><path class="cls-1" d="M148.17,48.16c-1.74,2.6-1.8,7,1.23,8.73,2.58,1.49,5.57,0,7.75-1.48,5.73-4,12.11-12,12.14-19.32,0-9.69-10.81-11.55-18-8.67A26.71,26.71,0,0,0,140,35.9c-2.16,2.84-5.25,8.31-2,11.43a2.29,2.29,0,0,0,3.2,0c1.5-1.74,1.48-4.06,2.53-6.06a18.26,18.26,0,0,1,6.62-6.56c3.18-2,12.09-5.34,12.82,1,.45,4-3.83,8.89-6.33,11.49-1.09,1.14-3.92,2.52-4.63,3.72-.29.49-.26,0-.28.2,0,0,1.41.75,1.39.76.35-.25-.24-2.8-.3-3.13-.48-2.38-3.66-2.38-4.82-.63Z"/><path class="cls-1" d="M77.39,113.5c-.51,6.23-9,5-10.89.24C63,105.27,72.11,98,79.16,96a30.38,30.38,0,0,1,18.46.21c6.26,2.22,8.26,7.08,12.1,11.89.74.93,2.1.28,2.43-.64,3.5-9.78-8.7-16.69-16.63-18.14-9.79-1.8-21.54-.11-29.19,6.63-7.31,6.45-10.3,20.39-.5,26.16,7.63,4.5,17.18.73,17.38-8.58.08-3.79-5.51-3.68-5.82,0Z"/><path class="cls-1" d="M59.72,133.88c3.44,2.83,6.74,3.49,8.64,8a30.61,30.61,0,0,1,1.94,13.54,25.52,25.52,0,0,1-3.57,11.81c-1.36,2.17-3.36,4.37-6.17,3.18-4-1.69-1.35-4.95-.2-7.55.86-1.94-.58-4.65-3-3.89-8.43,2.68-7.14,14.36.14,17.59,9.1,4,15.16-4.2,17.88-11.83a36.27,36.27,0,0,0,.15-23.11c-2-5.8-8.18-14.49-15.38-11.2a2.21,2.21,0,0,0-.44,3.45Z"/><path class="cls-1" d="M36.72,102.16a7.82,7.82,0,0,0-10.53,6.68c-.34,5.61,4.64,9.48,9.78,10.07C51,120.64,66.28,101.35,56.49,88,39,64.2-2.66,91.55,7.81,117.53c3.6,8.93,12.24,14.15,21.14,16.73,4.72,1.38,9.39,2.13,14.27,1.17,2.92-.57,5.67-1.67,8.52-2.49s5.73-1,8.38-2.11a1.82,1.82,0,0,0,.42-3.28c-4.95-3-11,.06-16,1.47-6.7,1.87-13.57.33-19.76-2.62-10.6-5.05-16-16.25-10.11-27,4.34-7.91,13.11-14,22.19-14.7,11.07-.86,21.6,9.13,15,20.06-3.17,5.21-10.68,10.83-17.13,8.38-1.76-.67-3.44-2.27-3.18-4.32.33-2.55,3.14-2.86,5.19-3.36,1.76-.43,1.51-2.78,0-3.32Z"/><path class="cls-1" d="M70.93,66.76c-1.59,4.09,1.64,10.07,5.62,11.71,5.16,2.13,10.12-2.62,12.74-6.59,6.64-10.07,1.36-23.45-9.38-28-11.34-4.84-22.54,1.82-27,12.53-2.3,5.46-3,11.2-.49,16.71a57.21,57.21,0,0,0,4.08,6.65c1.66,2.62,2.15,5.54,3.62,8.2.88,1.58,3.76,1.85,4.56,0,2.76-6.43-2.83-11.49-5.57-16.8-3.65-7.06.63-17.63,7.68-21.12,7.67-3.79,17.62,1.55,19.07,9.92a11.37,11.37,0,0,1-.88,6.66c-.79,1.77-3.62,6.45-5.87,6.16-1.53-.19-2.2-3-2.78-4.08a8.64,8.64,0,0,0-2.68-3c-1-.76-2.3.11-2.68,1.1Z"/><path class="cls-1" d="M144.46,233.25a5.89,5.89,0,0,0,5.72-5.71L150,226a5.65,5.65,0,0,0-1.47-2.52l-1.15-.89a5.65,5.65,0,0,0-2.89-.78,6.36,6.36,0,0,0-4,1.67,6.36,6.36,0,0,0-1.67,4l.2,1.52a5.84,5.84,0,0,0,1.47,2.52l1.16.89a5.61,5.61,0,0,0,2.88.78Z"/><path class="cls-1" d="M309.28,184a4.08,4.08,0,0,0,2.72,2.15l-1.68-1a.12.12,0,0,0,.05.05,4.08,4.08,0,0,0,2.65,1.1l1-.14a3.62,3.62,0,0,0,1.66-1l.05-.05-1.69,1a4,4,0,0,0,2.72-2.15,4.27,4.27,0,0,0,.59-2.18,4.33,4.33,0,1,0-8.65,0,4.27,4.27,0,0,0,.59,2.18Z"/><path class="cls-1" d="M250.49,293.66c5.48,0,5.49-8.52,0-8.52s-5.49,8.52,0,8.52Z"/><path class="cls-1" d="M237.92,38.05c-9-2.75-15.07,6.06-12.21,14.35,3.36,9.72,16,11.26,23.1,5a18.37,18.37,0,0,0,1.9-25.25c-5.24-6.44-14.2-9.69-22.37-9.42-6.06.19-21.35,5.65-16.36,14.46a1.16,1.16,0,0,0,1.57.41c2.32-1.57,3.28-4.16,5.39-5.94a14.89,14.89,0,0,1,8.52-3.09c6.49-.48,13.83,1.87,18.32,6.7,5.74,6.18,4.51,18.73-4.64,21.18-4.64,1.25-10.36-1.76-11.5-6.54-1.2-5,2-9.59,7.31-8.31a1.83,1.83,0,0,0,1-3.52Z"/><path class="cls-1" d="M34.63,164c4,0,4-6.22,0-6.22s-4,6.22,0,6.22Z"/><path class="cls-1" d="M66.78,132.24a33.69,33.69,0,0,0-5.8-4.05c-2-1-4.59-2.29-6.63-.89a2.16,2.16,0,0,0-.43,3.32c1.29,1.43,3.45,1.46,5.12,2.29a32.24,32.24,0,0,1,4.83,3.1c2.16,1.62,5-2,2.91-3.77Z"/><path class="cls-1" d="M37.35,72.82c7.18,0,7.19-11.16,0-11.16s-7.19,11.16,0,11.16Z"/><path class="cls-1" d="M100.84,187.37a3.48,3.48,0,0,0,0,4,3,3,0,0,0,1,1.1,1.92,1.92,0,0,0,.86.5,2.92,2.92,0,0,0,1.51.34l1-.14a3.88,3.88,0,0,0,2-1.41,3.78,3.78,0,0,0,.85-2.37,4.72,4.72,0,0,0-.54-2,3.77,3.77,0,0,0-1.87-1.61,3,3,0,0,0-1.52-.33l-1,.14a4.19,4.19,0,0,0-2.34,1.8Z"/><path class="cls-1" d="M47.08,42.71A3.72,3.72,0,0,0,49,42.28a4.39,4.39,0,0,0,2.62-2.62,3.72,3.72,0,0,0,.43-1.92l-.18-1.32a5,5,0,0,0-1.27-2.19l-1-.78a4.89,4.89,0,0,0-2.51-.67,3.69,3.69,0,0,0-1.91.42,3.75,3.75,0,0,0-1.6,1,3.84,3.84,0,0,0-1,1.6,3.69,3.69,0,0,0-.42,1.91l.17,1.32a5,5,0,0,0,1.28,2.2l1,.77a4.89,4.89,0,0,0,2.5.68Z"/><path class="cls-1" d="M198.83,214.51a2.71,2.71,0,0,0,1.41-.31,3.21,3.21,0,0,0,1.93-1.93,2.71,2.71,0,0,0,.31-1.41l-.13-1a3.69,3.69,0,0,0-.93-1.61l-.74-.57a3.75,3.75,0,0,0-1.85-.5,2.7,2.7,0,0,0-1.4.32,3.21,3.21,0,0,0-1.93,1.93,2.7,2.7,0,0,0-.32,1.4l.13,1a3.78,3.78,0,0,0,.94,1.62l.74.57a3.62,3.62,0,0,0,1.84.49Z"/><path class="cls-1" d="M183.33,28.87,183,29a2.52,2.52,0,0,0,0,4.34l.29.17a2.71,2.71,0,0,0,4.07-2.34,2.71,2.71,0,0,0-4.07-2.33Z"/><path class="cls-1" d="M329.53,80.69l-.33.13-.77.32a2.32,2.32,0,0,0-.9.83,3.09,3.09,0,0,0-.7,2,4,4,0,0,0,.44,1.63A3.37,3.37,0,0,0,329.2,87l.33.11a3.24,3.24,0,0,0,3.25-.86,3.34,3.34,0,0,0,0-4.73,3.3,3.3,0,0,0-3.25-.86Z"/><path class="cls-2" d="M285.08,9.37a31.79,31.79,0,0,1-5.49,5.32c-2.34,1.6-4.89,2.89-7.08,4.72-3.54,2.95-7.24,7.08-8.44,11.66-2,7.66,4.19,13,9.74,17,7.18,5.22,14.63,9.46,16.69,18.74S290,88,281.64,93.5c-6.11,4-13.86,2.88-18.13-3.23a16.26,16.26,0,0,1-2.69-9.68c.12-4.17,2.58-6.18,4.06-9.74.08-.19-.16-.31-.31-.24-10.65,5.19-8.11,21.11,0,27.16,9.56,7.11,21.95,1.33,27.7-7.71,5.62-8.87,6.85-21.47,2.27-31s-14.83-12.82-21.86-19.87c-4.61-4.62-2.4-9.17,1.6-13.55s14.06-7.81,13.86-15a1.84,1.84,0,0,0-3.1-1.29Z"/><path class="cls-2" d="M266.29,70.07a0,0,0,0,0,0,0,0,0,0,0,0,0,0Z"/><path class="cls-2" d="M266.08,32.63c.85,8.11.53,15.12-5.38,21.4a34.46,34.46,0,0,1-19.86,10c-6,.9-13.51.54-18.07-4-5.27-5.23-4.4-16.15.47-21.32,2.79-2.95,8.86-5.85,12.65-3,2.23,1.69,2.56,5.47,2.07,8-.27,1.38-1.23,3.61-2.43,4.34-3.2,2-4.6-1.35-6-3.67a.4.4,0,0,0-.73.2c.13,6.21,5.68,7.56,9.87,3.66,4-3.68,4.87-10.87,1.38-15.14s-10.18-4.32-15-2.31c-6.62,2.74-9.88,8.55-11,15.39-1.62,10.24,2.94,19.4,13.18,22.43,9.9,2.93,21.52,0,30-5.51,10.05-6.57,17.45-19.43,12-31.36-.69-1.52-3.37-.8-3.2.87Z"/><path class="cls-2" d="M231.54,69.26c3.34,3.78,2.45,9,1.17,13.49-1.82,6.36-4.75,12.37-7.34,18.43-4.48,10.52-10.78,24.58-4.21,35.57,8.35,14,30.29,15.29,42.45,6.28,14-10.35,13.43-31.8-3.44-38.95-8-3.39-15.94.52-17.36,9.29-1.16,7.16,4.07,16.7,11.52,10.7.16-.13,0-.41-.2-.35-10.27,3.62-9.94-16.86.66-15.54,6.06.76,11.85,7.2,12.84,13,1.29,7.6-4,14.75-10.36,18.2-6.83,3.69-14.38,3.54-21.5.79-22.07-8.54-4.47-36.16.56-50.7,2.64-7.61,5.38-17.91-2.28-23.5-2-1.46-4,1.58-2.51,3.24Z"/><path class="cls-2" d="M226.45,103.38c-3.56,9.45-15.32,21.57-25.87,14.28-6.87-4.74-9.65-15-8.26-22.9,1.25-7,9.7-16.66,16.65-9.45a11.14,11.14,0,0,1,3,9,5.4,5.4,0,0,1-1.93,3.39c-2.67,2.23-5,1.14-7-1a.38.38,0,0,0-.63.27c.34,4.73,3.88,7.06,8.57,5.8,3.7-1,5.87-4.53,6.42-8.12,1.22-8.1-5.06-17.27-13.6-17.4-11-.17-17.19,11.15-17.29,20.82s4.48,21.31,13.9,25.46c12.55,5.51,27.56-7.29,28.63-19.83.13-1.56-2.08-1.62-2.56-.34Z"/><path class="cls-2" d="M197.65,120.93c-1,8.48-.17,17-3.51,25.08-4,9.71-14.18,15.39-23.8,9.4-7.14-4.46-15-16.77-7.66-24.34,3.87-4,11.2-5.74,15.46-1.28,5.72,6-2.42,12-8.45,10.58-.48-.12-1,.54-.52.9,6.76,5.45,15.78-3.74,12.91-11.1-4-10.36-18.57-7.3-24.2-.56-7.31,8.73-.69,21.71,6.83,27.93,8.73,7.21,20.63,7.28,28.61-1.15,8.29-8.76,9.82-24,8.48-35.46a2.08,2.08,0,0,0-4.15,0Z"/><path class="cls-2" d="M190.35,109.4c-4.95,2.34-9.53,4-14.53.78a18.4,18.4,0,0,1-7.53-11.41c-.89-4.13-.14-8.44,3.86-10.57,8.1-4.32,13.3,5.82,7.79,11.67a.16.16,0,0,0,.2.25c7.4-4.14,6.53-14-1.31-17.09-7.54-3-15.25,2.73-16.35,10.25-2.23,15.29,17.34,33.06,30.4,19.4a2.1,2.1,0,0,0-2.53-3.28Z"/><path class="cls-2" d="M178.54,100.61a6.19,6.19,0,0,0-2.31,0,.14.14,0,0,0,0,.27,6,6,0,0,0,2.31,0,.12.12,0,0,0,0-.23Z"/><path class="cls-2" d="M233.24,146c8.59,3.5,15.28,9.21,15.88,19.11.55,9-5.14,16.25-14.23,17.32a16.73,16.73,0,0,1-18.16-13c-.76-3.2-.65-6.92,1.67-9.49,4.56-5.06,11.63-2.5,14.34,3.06.16.33.62.09.55-.23-.52-2.71-1.7-7.12-4.25-8.74-1.71-1.09-4.35-1-6.32-.87-3.8.32-7.59,1.87-9.75,5.16-4.65,7.08-1.23,17.07,4,22.8,6.73,7.4,17.75,8.92,26.6,4.47,8.37-4.2,12.1-13.56,10.88-22.55-1.38-10.18-9.57-21-20.69-20.85-2.34,0-2.47,3-.52,3.83Z"/><path class="cls-2" d="M254.17,169.28c11.07,13.92,39.42,18,46.45-2,3.59-10.19,1-20.88-9.07-25.83-8.09-4-19.05-2.45-21.77,7.31-1.57,5.59,1.06,12,6.57,14.28,3.63,1.51,11.28-.53,9.46-5.72a1,1,0,0,0-1.2-.68c-2.41.58-3.21,2.9-6,1.93s-4.19-4.56-3.71-7.33c.69-4,3.92-6.2,7.84-6.15a15.48,15.48,0,0,1,10.84,5c3.29,3.66,3.21,8.49,2.17,13.08-4.4,19.46-28.47,11.43-39.49,3.4-1.68-1.23-3.14,1.28-2.05,2.66Z"/><path class="cls-2" d="M249,178c-2.28,4.71-3.28,8.58-2.52,13.89a43.91,43.91,0,0,0,5.5,15.38c4.81,8.4,12.71,17.12,22.56,19.26,10.31,2.24,17.49-5,20.71-14.1,3.63-10.26-1.52-23.14-13.49-24.27-5.8-.54-10.54,3.14-12.17,8.64-1.74,5.88.63,12.78,7.68,11.92a.94.94,0,0,0,.47-1.73c-3.48-2-4.64-4.35-3.21-8.22.89-2.39,2.44-4.4,5.09-4.8,4.63-.71,9.17,3.51,10.61,7.56,2.79,7.78-3.93,20.46-13,19.46-8.27-.91-15.47-8.63-19.72-15.19-4.8-7.38-8.46-18-6.27-26.87.32-1.28-1.58-2.21-2.2-.93Z"/><path class="cls-2" d="M284.23,93.52c-3.06,10.36,4.54,23.47,13.2,28.92,6.39,4,15.63,5,22.63,2.14,16.51-6.77,6.87-34.31-10.12-28.16-7.57,2.74-7.77,11.06-1.47,15.08.31.21.62-.18.48-.47-1.23-2.53-2.63-6.23-.05-8.25,2-1.53,5.11-1.65,7.4-1,6.37,1.81,9.24,11.93,3.6,16.12-4.73,3.52-12.54,2.69-17.59.38-9.93-4.55-12.86-15-14.63-24.76-.33-1.82-3-1.59-3.45,0Z"/><path class="cls-2" d="M290.38,62.56c.68,5-1,11.53-7.32,10.78a7.91,7.91,0,0,1-5.59-3.45c-1.68-2.52-1.29-5.52-2.24-8.25a.65.65,0,0,0-1.18-.15c-4.76,6.23,2.62,14.76,9,15.31,8.58.74,11.67-7.48,10.5-14.67-.29-1.79-3.43-1.39-3.19.43Z"/><path class="cls-2" d="M291.94,62.56c.26,4.5,5.32,7.58,9.32,8.55a18.75,18.75,0,0,0,12.84-1.9c9.17-4.73,14.15-15.47,9.49-25.13-3.74-7.73-13.86-12.26-20.06-4.32-1.79,2.27-3,5.71-1.66,8.49a5.57,5.57,0,0,0,7.79,2,.51.51,0,0,0,0-.88c-1.37-1-3.73-1.49-3.76-3.47,0-1.55,2.08-3.16,3.26-3.85,6-3.53,10.75,4.65,11,9.8.35,6.3-4.39,11.68-10,13.87a13.53,13.53,0,0,1-8.58.67c-3.2-.93-4.58-3.7-7.3-5.22a1.59,1.59,0,0,0-2.37,1.36Z"/><path class="cls-2" d="M300.33,162.43c3.34-.09,6.3-2.6,9.76-1.18,3.06,1.26-.49,3.28-1.23,5-.14.32-.07.85.38.92,2.31.36,4.53-1.34,5.6-3.33a4.31,4.31,0,0,0-1.6-5.53c-3.77-2.66-12-1.93-14,2.72a1.1,1.1,0,0,0,1.06,1.38Z"/><path class="cls-2" d="M220.61,55.42c-5.61-8.93-14.87-19.8-25.81-21.61-11.14-1.85-22.19,5-26.19,15.4-3.6,9.38-.28,22.44,10.34,25.43,9.32,2.63,19.12-4.1,20.29-13.62,1-8.67-5.89-21.73-15.21-13.23a.8.8,0,0,0,.77,1.32c5.82-1.56,9.54.81,10.26,6.92A12.2,12.2,0,0,1,189.8,68c-9.54,6-18.37-4.08-16.68-13.64,1.8-10.11,12.73-17.39,22.7-14.5s14.08,12.9,21.65,18.73c1.87,1.44,4.3-1.31,3.14-3.14Z"/><path class="cls-2" d="M170.63,49.34c-4.14,5.19-6.75,11.41-11.58,16.11-2.69,2.61-6.33,5-10.22,3.72a11.48,11.48,0,0,1-7.07-7.61c-1.46-5.51,1.21-11.81,4.7-16,1.19-1.43,3.18-3.78,5.22-3.93,2.27-.16,3.31,2.26,4.48,3.82a1.33,1.33,0,0,0,2.46-.67c1-8.25-7.47-9.9-12.9-5.82-6.29,4.72-10.38,13.75-9.47,21.59,1,8.74,10.39,16.23,19.09,12.78,8.4-3.32,15-14.53,17.19-22.86.27-1-1.16-2-1.9-1.11Z"/><path class="cls-2" d="M243.33,186c-3.42,11.61-18.38,21.13-30.44,19.25-6.53-1-11.36-7.39-8.41-13.69s8.64-5.87,11.67,0a1.12,1.12,0,0,0,2-.86c-2.09-6.81-8.88-8.41-14.46-4.37-6.69,4.85-5.78,14.38-.33,19.84,7.19,7.2,18.85,4.78,27,.79,7.47-3.65,17.33-11.15,17-20.46a2.1,2.1,0,0,0-4.11-.55Z"/><path class="cls-2" d="M175.1,160.55c-17.52-4.47-36.54,18.69-32.35,35.21,2.2,8.71,10.57,15,19.48,12,8.54-2.89,15.4-12.41,12.4-21.52-3.69-11.19-17.64-4.56-18.12,4.89a.8.8,0,0,0,1.19.68c2.7-2,5.67-6.76,9.09-7.22,6.27-.84,4,10,2,12.9-5.52,8.16-16.93,8.82-20.88-1.06-6.13-15.34,12.17-33.3,26.78-32.82a1.54,1.54,0,0,0,.4-3Z"/><path class="cls-2" d="M145.73,181.29c-5.48,2.47-9.71,5.86-16,6a19,19,0,0,1-13.55-5c-7.79-7.28-6.6-20.31-.63-28.4,5.23-7.07,17.28-12.28,21.33-1.29,1.35,3.68,1.37,9.92-3.15,11.52s-3.36-2.18-2.9-4.86a1.84,1.84,0,0,0-3.06-1.78c-6.82,6,1.61,14.1,8.65,10.57,9.56-4.81,7-20.5-1.21-25.33-9.1-5.33-20.69,2.16-25.3,10.14-5.92,10.24-6.46,24.49,2.68,33s27.71,8.19,35.06-2.75c.84-1.25-.75-2.38-1.88-1.87Z"/><path class="cls-2" d="M147,72.74c-1.1,10.58-3.78,22.3-12.22,29.55-4.53,3.9-16.37,10.78-19.67,1.91-2.16-5.82-.12-17.07,8-16.26,2,.19,4.25,1.26,5,3.22,1.16,3.08-1.93,5.52-3,8.06a.83.83,0,0,0,.92,1.2c6.23-1.3,8.28-9.55,4.07-13.94s-11.52-4.28-16-.43c-6.34,5.5-7.55,18.24-1.67,24.47,6.3,6.67,16.71,2.84,23-1.65,11.91-8.43,15.68-22.26,17-36.13.33-3.53-5.11-3.47-5.47,0Z"/><path class="cls-2" d="M122.74,148.06c8.1-6.32,8.7-24.26-3.19-26.58a12.65,12.65,0,0,0-12.8,6.36c-2.14,4.24.65,9.15,5.63,7.95a.8.8,0,0,0,.35-1.32c-.94-1-2.67-2.13-2.64-3.66,0-1.29,1.61-2.7,2.48-3.41,2.77-2.25,7-2.9,9.82-.34,5.08,4.57,2,14.56-1.83,18.82a1.54,1.54,0,0,0,2.18,2.18Z"/><path class="cls-2" d="M142.64,65.82c-3.15-8.25-9.4-16.48-15.63-22.67-5.57-5.53-14.2-11.51-22.13-6.95C96,41.29,92.57,54,96.67,63c3.84,8.39,14.3,14.66,21.49,6.09,3.62-4.31,5.67-11.23.68-15.4-3.93-3.29-10.47-2.29-12.35,2.66a.82.82,0,0,0,.79,1c2.42-.18,5.42-1.67,7.73-.37,3.49,2,1.18,6.44-.74,8.6-3.43,3.87-7.59,2.2-10.52-1.37s-4.39-8.5-3.12-13c1.1-3.84,3.78-9.12,7.68-10.82,6.69-2.92,14,5,18.06,9.25,5,5.38,8.7,11.61,13.13,17.42,1.06,1.39,3.9.67,3.14-1.33Z"/><path class="cls-2" d="M195.4,175.49a3,3,0,0,0,2.06,0l0,0c.32-.12.63-.25.94-.39a3.94,3.94,0,0,0,1.4-5.37,4.1,4.1,0,0,0-2.34-1.8,3.89,3.89,0,0,0-3.82,1,4,4,0,0,0-1,3.82,4,4,0,0,0,1,1.73,3.92,3.92,0,0,0,1.73,1Z"/><path class="cls-2" d="M247.56,88.42c5,0,5-7.7,0-7.7s-5,7.7,0,7.7Z"/><path class="cls-2" d="M147.51,122.08c5.35,0,5.36-8.31,0-8.31s-5.35,8.31,0,8.31Z"/><path class="cls-2" d="M286.12,130.83c.05.39.09.78.15,1.16a1.87,1.87,0,0,0,.08.32,2.77,2.77,0,0,0,.69,1.18,2.66,2.66,0,0,0,1.17.68,2.35,2.35,0,0,0,1.07.05A1.29,1.29,0,0,0,290,134a.75.75,0,0,0,.36-.17l-1.19.33a2.79,2.79,0,0,0,1.93-.76,2.36,2.36,0,0,0,.6-1.25,2.05,2.05,0,0,0-.26-1.39,2.61,2.61,0,0,0-.81-.81.2.2,0,0,0-.08,0l-.13-.09.47.36,0,0,.37,2.84.05-.07-.42.53a.76.76,0,0,0,.22-.28,1.92,1.92,0,0,0,.48-.9,3.93,3.93,0,0,0,.09-.75v-.19c0-.18,0-.36.05-.54a2,2,0,0,0-.23-1.06,2.12,2.12,0,0,0-.58-.89,2.75,2.75,0,0,0-3.9,0,2.67,2.67,0,0,0-.81,2Z"/><path class="cls-2" d="M98.46,54.26c-2.24,1.67-3.18,2.55-4.3,5.34-1.39,3.48-2.42,7.11-3.94,10.54-3.29,7.42-10,14.13-18.5,9.9-5.8-2.88-13.84-12.15-9.16-18.9,3-4.3,8.37-5.88,11.17-.67,2,3.81,1.58,8.14,1.13,12.27-.09.8,1,1.1,1.5.62,7-6.61,1.65-23.11-9.06-21-11.77,2.33-12.52,15.8-6.65,23.86,6.09,8.36,17.09,13,25.92,5.86,4.22-3.43,6.48-8.55,8.23-13.57.93-2.65,1.72-5.35,2.66-8,.73-2.09.8-4,1.33-6,0-.17-.16-.37-.33-.24Z"/><path class="cls-2" d="M79.55,85.78c-3.89-2.07-9.62,1.12-12.71,3.51a28.08,28.08,0,0,0-8.48,11.5c-3.43,8.21-4.19,19.44,2.46,26.33,7.56,7.81,22.19,5.63,29.82-1,6.94-6,5.75-15.92-1.25-21.35-9.51-7.4-18.85.74-20.21,11-.18,1.37,1.77,1.34,2.2.3,2.7-6.39,7.9-14,15.19-8,5.33,4.4,5,11.72-.91,15.32-6.11,3.69-16.93,5.4-21.75-1.24-3.84-5.28-3-13-.88-18.8a25.91,25.91,0,0,1,6.68-10.06c3-2.74,7.15-3.28,10.06-5.8a1.1,1.1,0,0,0-.22-1.71Z"/><path class="cls-2" d="M71.58,134.52c3,2,6.36,2.16,8.77,5.29a18.22,18.22,0,0,1,3.28,9.57,36.1,36.1,0,0,1-6.14,23c-5,7.27-13.83,11.1-21.65,5.35-4.09-3-8.23-9-5.88-14.22,1.31-2.92,6.12-6.94,8.89-3.63,1.89,2.25,1.07,5.73.46,8.25a1.26,1.26,0,0,0,2.09,1.22c3.5-3.25,3.58-9.35.41-12.91-3.82-4.28-9.53-2.27-13.25,1-9.83,8.75-1.77,23.14,8.36,27.49,21.16,9.09,34.38-19.65,32.61-36.45-.51-4.83-2-9.84-5.49-13.4-3-3-8.32-5.75-12.46-3.7a1.8,1.8,0,0,0,0,3.08Z"/><path class="cls-2" d="M57.6,103.43c-2,7.36-7.27,12.32-14.46,14.75-5.9,2-14.3,2.7-19.17-2-5.11-5-3.86-17.6,3.16-20.33,6.74-2.62,14.14,3.87,10.22,10.52-1,1.67,1.2,3.15,2.57,2,6.17-5.26,2.65-13.26-3.75-16.37-7.48-3.63-15.61-.2-18.51,7.5-2.82,7.49-2.16,17,5,21.77,6.25,4.17,14.86,3.72,21.68,1.31,8.18-2.88,16.22-9.42,17-18.59.19-2.17-3.17-2.53-3.72-.51Z"/><path class="cls-2" d="M251.51,205.47c4.3,5.28,9.06,12,6.31,19.06-2.42,6.22-8.84,10.42-14.3,13.7-14.76,8.86-31.4,14.2-46,23.43-12.51,7.93-23.87,21.56-13.73,36.4,11.13,16.26,39.37,16.19,49.33-1.23,4.82-8.42,5.49-21.39-5.41-25.19-9.57-3.33-21.9,3.74-23.37,13.9-.11.7.76,1.47,1.35.78,3.41-4,6-8,11.15-9.95,3.57-1.34,7.8-1.72,11.16.38,9.22,5.72,1.44,20-5.15,24.45-7.9,5.33-19,5.3-27.31.9-7.18-3.81-12.6-11.91-10.36-20.22,3.38-12.52,19.84-19.42,30.33-24.5,13-6.3,27.5-11.51,38.72-20.91,4.54-3.81,8.5-8.82,8.95-14.94.53-7.28-3.85-14-8.73-19-1.93-2-4.64.92-3,3Z"/><path class="cls-2" d="M252.78,234.82c-8,4.67-13.07,15.52-9.25,24.52,4.36,10.27,17,12.67,26.34,8.19,3.81-1.82,7.5-5,8.13-9.37s-2.24-9.67-6.21-11.66c-7.75-3.86-17.48,3.43-11.07,11.18,1,1.24,2.89-.35,2.17-1.67-4.66-8.53,10-9.54,11.68-.42,1.36,7.49-9.24,11-15,10.84-7.48-.15-14.08-6.12-14.13-13.71,0-6.33,3.69-12.66,7.85-17.23a.43.43,0,0,0-.51-.67Z"/><path class="cls-2" d="M240.51,241.81c-6.34,3.15-12,5.7-18.73,2.09-5.39-2.88-9.49-7.85-13.6-12.24-8-8.5-17.59-18.12-30.35-14.53C166,220.45,158,235.94,159.59,247.7c1.85,13.52,19.56,14.76,27.39,5.39,3.59-4.3,5.42-11.41,2.36-16.5-3.56-6-11.11-4-15.24.15-.56.57,0,1.72.82,1.41,4.72-1.75,11.18-3.91,12,3.22.63,5.65-3.29,11.12-8.57,12.86s-12,1-14-4.9c-1.69-5,0-11.13,2.16-15.75,4.86-10.23,15.2-16.6,25.87-10.33,8.68,5.1,14.25,14.14,22,20.43,8.4,6.81,19.39,8.23,27.44-.22a1.05,1.05,0,0,0-1.27-1.65Z"/><path class="cls-2" d="M216.78,209.5c6.32,1.46,13.16-1.28,19.41,1.33,7.32,3,3.12,15.18-2.07,18.62-4,2.66-9.18-.11-11.51-3.77-3.49-5.48,2.87-5,6.67-5.89a.78.78,0,0,0,.18-1.41c-4.05-2.43-11.41-2-12,3.84-.48,4.8,4,9.35,8,11.26,5.45,2.61,11.09.76,14.52-4.09,4-5.59,7.41-16,.75-20.92-5.78-4.26-17.91-4.11-24.24-1.26a1.26,1.26,0,0,0,.3,2.29Z"/><path class="cls-2" d="M218.2,294.11c3.83,0,3.84-6,0-6s-3.85,6,0,6Z"/></svg>